<?xml version="1.0" standalone="no"?>
<!DOCTYPE svg PUBLIC "-//W3C//DTD SVG 20010904//EN"
 "http://www.w3.org/TR/2001/REC-SVG-20010904/DTD/svg10.dtd">
<svg version="1.0" xmlns="http://www.w3.org/2000/svg"
 width="1280.000000pt" height="935.000000pt" viewBox="0 0 1280.000000 935.000000"
 preserveAspectRatio="xMidYMid meet">
<g transform="translate(0.000000,935.000000) scale(0.100000,-0.100000)"
fill="#000000" stroke="none">
<path d="M5025 9339 c-225 -41 -288 -60 -418 -127 -280 -143 -516 -403 -713
-787 -58 -112 -77 -162 -97 -250 -51 -219 -79 -393 -96 -600 -14 -152 -14
-491 -1 -615 9 -87 73 -502 86 -560 4 -17 14 11 30 93 13 65 55 213 93 330 38
117 83 259 101 317 41 137 128 362 191 498 225 482 504 767 795 812 179 28
406 -62 647 -257 137 -109 331 -276 463 -397 229 -208 359 -276 564 -291 180
-13 272 22 346 134 58 86 85 167 91 276 7 119 -10 188 -87 340 -75 150 -158
261 -291 391 -330 320 -879 598 -1320 669 -57 9 -126 20 -152 26 -58 11 -163
10 -232 -2z"/>
<path d="M8495 8986 c-318 -74 -557 -264 -679 -543 -58 -132 -71 -192 -70
-333 1 -186 42 -319 149 -485 93 -143 209 -245 365 -319 135 -63 230 -87 380
-93 416 -17 766 205 919 584 93 228 87 434 -17 657 -98 209 -230 346 -428 445
-141 70 -236 93 -409 97 -105 3 -168 0 -210 -10z"/>
<path d="M11757 7332 c-40 -181 -281 -607 -482 -857 -168 -207 -542 -531 -804
-695 -119 -74 -272 -147 -338 -160 -144 -30 -322 61 -486 249 -72 83 -132 204
-227 461 -84 227 -139 346 -207 450 -116 177 -306 283 -449 251 -138 -31 -286
-209 -340 -406 -24 -91 -29 -282 -10 -390 47 -268 209 -614 401 -852 155 -193
433 -429 600 -509 112 -54 181 -72 317 -83 176 -14 342 13 516 85 540 224 999
663 1270 1217 163 332 243 543 288 764 24 119 26 140 20 293 -9 218 -14 260
-35 260 -12 0 -21 -20 -34 -78z"/>
<path d="M4450 5812 c-184 -49 -288 -181 -322 -409 -21 -143 24 -339 108 -464
51 -78 137 -167 282 -293 56 -49 102 -94 102 -100 -1 -34 -716 -781 -1251
-1306 -503 -494 -803 -798 -1304 -1320 -193 -200 -492 -500 -665 -665 -317
-304 -385 -373 -376 -382 29 -30 516 240 1312 728 555 339 712 434 919 554
341 197 1124 660 1265 748 308 191 539 354 709 499 49 42 145 116 213 165 67
48 170 123 227 166 58 42 114 77 124 77 21 0 193 -93 282 -152 82 -56 194
-147 211 -174 8 -12 17 -51 21 -88 6 -65 5 -68 -31 -121 -51 -73 -176 -191
-271 -255 -43 -29 -204 -118 -359 -197 -155 -80 -364 -189 -466 -243 -476
-251 -800 -408 -1150 -555 -141 -59 -273 -126 -285 -145 -28 -46 649 -7 1075
62 134 21 157 27 675 167 677 183 877 250 1130 379 405 207 724 536 829 855
31 93 -3 253 -86 409 -124 232 -557 719 -883 993 -71 60 -168 145 -215 188
-266 247 -698 556 -934 667 -148 70 -429 183 -511 206 -91 25 -293 28 -375 6z"/>
<path d="M12565 1073 c-16 -2 -356 -26 -755 -53 -399 -28 -849 -59 -1000 -70
-151 -11 -601 -42 -1000 -70 -399 -28 -849 -59 -1000 -70 -151 -11 -601 -42
-1000 -70 -399 -28 -849 -59 -1000 -70 -151 -11 -601 -42 -1000 -70 -399 -28
-849 -59 -1000 -70 -151 -11 -601 -42 -1000 -70 -399 -28 -849 -59 -1000 -70
-151 -11 -601 -42 -1000 -70 -1685 -118 -1692 -118 -1697 -124 -3 -3 -2 -48 2
-101 7 -92 9 -96 29 -91 45 11 114 17 471 41 204 14 494 34 645 45 151 11 473
33 715 50 242 17 564 39 715 50 590 41 871 61 1285 90 405 28 630 44 1285 90
151 11 601 42 1000 70 399 28 849 59 1000 70 151 11 601 42 1000 70 399 28
849 59 1000 70 151 11 601 42 1000 70 399 28 851 60 1005 70 154 11 536 38
849 60 313 22 571 42 574 44 2 3 1 46 -3 95 l-7 91 -42 -2 c-22 0 -54 -3 -71
-5z"/>
</g>
</svg>
